# xmcd
# Track frame offsets:
# 150
# 9807
# 19510
# 28505
# 39100
# 49422
# 58285
# 69287
# 78307
# 87895
#
# Disc length: 1317 seconds
# Revision: 0
# Processed by: cddbd v1.4PL0 Copyright (c) Steve Scherf et al.
# Submitted via: VisiTrax 2.9.3.171 - For more info visit www.synapsa.com
#
DISCID=6a05230a
DTITLE=Johnnie and Jack - Johnnie and Jack Greatest Hits
DYEAR=1997
DGENRE=Country
TTITLE0=Poison Love
TTITLE1=Cryin' Heart Blues
TTITLE2=Three Ways of Knowin'
TTITLE3=Ashes of Love
TTITLE4=When My Blue Moon Turns To Gold Again
TTITLE5=(On Baby Mine) I get So Lonely
TTITLE6=Goodnight Sweetheart It's Time To Go
TTITLE7=I want To Be Loved
TTITLE8=Stop The World (And Let Me Off)
TTITLE9=Slow Poison
EXTD=
EXTT0=
EXTT1=
EXTT2=
EXTT3=
EXTT4=
EXTT5=
EXTT6=
EXTT7=
EXTT8=
EXTT9=
PLAYORDER=
